PathFileType        4      (X/Y/Z)      C:\Users\cpontonn\Documents\TRAVAIL - COURS\DIGISPORT\Partage Nico\Partage Nico DIGISPORT\TP OPENSIM - eleves - work\DATA\transformed_Marche0007.trc         
DataRate	CameraRate	NumFrames	NumMarkers	Units	OrigDataRate	OrigDataStartFrame	OrigNumFrames
100.0	100.0	4	38	mm	100.0	156	414
Frame#	Time	LFHD			LBHD			RFHD			RBHD			C7			T10			CLAV			STRN			LSHO			LRAD			LHUM			LWRB			LWRA			LCAR			RSHO			RRAD			RHUM			RWRB			RWRA			RCAR			LFWT			LBWT			RFWT			RBWT			LKNE			LKNI			LANE			LHEE			LANI			LTAR			LTOE			RKNE			RKNI			RANE			RHEE			RANI			RTAR			RTOE			
		X1	Y1	Z1	X2	Y2	Z2	X3	Y3	Z3	X4	Y4	Z4	X5	Y5	Z5	X6	Y6	Z6	X7	Y7	Z7	X8	Y8	Z8	X9	Y9	Z9	X10	Y10	Z10	X11	Y11	Z11	X12	Y12	Z12	X13	Y13	Z13	X14	Y14	Z14	X15	Y15	Z15	X16	Y16	Z16	X17	Y17	Z17	X18	Y18	Z18	X19	Y19	Z19	X20	Y20	Z20	X21	Y21	Z21	X22	Y22	Z22	X23	Y23	Z23	X24	Y24	Z24	X25	Y25	Z25	X26	Y26	Z26	X27	Y27	Z27	X28	Y28	Z28	X29	Y29	Z29	X30	Y30	Z30	X31	Y31	Z31	X32	Y32	Z32	X33	Y33	Z33	X34	Y34	Z34	X35	Y35	Z35	X36	Y36	Z36	X37	Y37	Z37	X38	Y38	Z38	
156	1.55	-683.08423	1648.29993	157.54169000000002	-828.74725	1672.18579	161.20869	-674.88123	1658.90698	292.80206000000004	-836.23871	1676.39832	287.74387	-926.14722	1563.58521	249.23510999999996	-1048.10645	1358.1156	252.95882999999995	-821.94147	1456.02246	250.32358999999997	-825.28827	1274.42578	257.5519699999999	-880.70343	1512.27869	47.380259999999986	-1035.11719	1171.77808	15.286529999999946	-1054.53406	1191.01843	73.92193999999995	-1049.04297	915.98291	5.603259999999927	-1023.54712	907.91046	79.09018999999994	-1027.72083	826.43768	28.701109999999925	-880.9104	1514.03052	439.31128	-928.0178800000001	1146.34778	543.28888	-962.0153800000002	1147.66626	492.75008999999994	-784.6478300000001	925.15509	553.5302699999999	-753.5321000000001	935.04462	487.8343499999999	-722.6862200000002	864.79669	544.4437299999998	-805.89703	1016.87177	188.15694999999997	-1007.67401	1044.85437	212.61475999999993	-836.80762	1012.34021	376.96007999999995	-1021.4502	1046.38647	293.85790999999995	-708.42865	537.23706	122.56032999999994	-698.22607	504.21878	235.28684999999993	-559.77258	106.89718999999998	155.10250999999994	-617.65424	13.954109999999988	206.8909299999999	-559.05133	117.30029999999998	244.68627999999995	-391.42807	100.54507999999998	145.70406999999994	-349.1611	127.24641999999999	231.53960999999995	-1076.57458	514.34973	406.56749999999994	-1083.2561	474.37866	308.21245999999996	-1350.64868	136.22608999999997	351.6451999999998	-1444.04297	100.81224999999999	283.8484199999998	-1325.55579	154.43676999999997	263.0567599999998	-1227.76062	34.33304999999998	388.9823299999998	-1166.97705	31.131759999999982	305.35717999999986	
157	1.56	-667.99481	1647.63379	154.42674000000002	-814.56964	1671.34119	158.27559	-659.74872	1658.85779	289.6463600000001	-821.16339	1675.99792	284.69403	-910.93982	1562.56689	246.66222999999997	-1031.94202	1356.34448	251.47712999999996	-806.34656	1455.45166	248.60153	-808.63544	1273.802	256.73430999999994	-864.74377	1510.29736	45.128739999999986	-1016.53259	1168.71008	12.947559999999946	-1036.45361	1187.7157	72.91153999999995	-1029.14221	913.23718	4.79023999999993	-1002.5097	904.96704	77.76926999999993	-1006.35541	823.62286	27.279639999999926	-865.95294	1514.09778	437.27048	-914.5164800000001	1146.91028	542.52643	-948.2246700000001	1148.12256	491.8416399999999	-773.2683700000001	924.44775	554.8475999999999	-741.6640000000001	933.75543	489.27874999999995	-711.8394800000001	863.53485	546.5194099999999	-788.52405	1016.22864	188.05393999999998	-991.17017	1044.26099	213.49175999999994	-819.58679	1010.55341	376.8632799999999	-1003.63293	1044.80359	293.53390999999993	-691.67181	536.95221	122.92545999999994	-682.776	503.75937	235.83400999999995	-551.73505	104.64693999999999	156.54386999999994	-616.58685	16.011439999999986	206.6053499999999	-551.36688	114.17721999999999	246.79332999999994	-384.95035	89.27630999999998	148.27071999999995	-341.2769200000001	112.22104999999999	234.66678999999996	-1059.04663	512.18488	407.43691999999993	-1066.24402	472.08456	309.09844999999996	-1344.72144	142.51159999999996	351.0298199999998	-1439.17346	111.35727999999999	283.8943199999998	-1318.75549	160.22867999999997	263.52349999999984	-1227.25745	34.41473999999998	389.0151999999998	-1166.67542	30.805739999999982	305.38897999999983	
158	1.57	-652.91193	1647.63635	151.40501000000003	-799.7677	1670.94019	155.23375000000001	-644.51337	1659.22571	286.48953000000006	-806.02258	1676.00928	281.58725	-895.6405	1562.10095	244.15880999999996	-1015.82098	1355.16919	250.03888999999998	-790.75824	1455.32043	246.90385	-792.09448	1273.57837	256.05654999999996	-848.83704	1508.7019	42.90513999999999	-998.78448	1165.73376	12.567489999999948	-1018.37415	1184.29993	71.74872999999994	-1007.9881	910.02582	3.321929999999932	-981.14349	902.27869	76.41931999999994	-984.43683	820.9563	25.763449999999928	-850.88531	1514.47913	435.29208	-901.1396500000001	1147.7312	541.6532	-935.9474500000001	1149.23987	491.2503699999999	-762.3889800000001	923.92139	556.1220099999999	-730.2568400000001	932.59851	490.74965999999995	-701.5730600000002	862.43317	548.6337299999999	-771.25922	1016.41205	187.58213999999998	-974.14014	1043.75989	213.44825999999995	-802.31134	1009.22614	376.57778999999994	-986.13934	1043.55603	293.52138999999994	-674.92462	537.74933	122.78687999999994	-667.96661	504.07388	236.16462999999993	-545.70837	102.90622999999998	157.19340999999994	-615.59412	17.788549999999987	206.24355999999992	-545.54462	111.90917999999999	248.08982999999995	-379.69351	79.22153999999999	150.67585999999994	-335.32394000000005	98.63762999999999	237.55816999999996	-1040.30688	510.17981	408.44597999999996	-1048.255	470.16406	310.26430999999997	-1337.59912	149.40316999999996	350.18764999999985	-1433.42249	123.49299999999998	283.3695999999998	-1310.30225	166.12119999999996	264.26131999999984	-1226.59155	34.61416999999998	388.9232499999998	-1166.18103	30.418799999999983	305.4350299999998	
159	1.58	-637.62372	1647.9187	148.32065000000003	-784.63635	1670.97485	152.11368000000002	-629.28857	1660.02576	283.37976000000003	-790.82343	1676.48096	278.42709	-880.28809	1562.17773	241.76549999999997	-999.76172	1354.59937	248.81476999999998	-775.25116	1455.59741	245.2867	-775.68616	1273.83154	255.35657	-833.08179	1507.48254	40.75271999999999	-979.99908	1162.96509	11.08838999999995	-999.77539	1181.2561	70.43571999999995	-986.64484	907.27283	1.9894499999999347	-959.30237	899.82599	74.94885999999994	-962.0354	818.59503	24.231139999999932	-835.71332	1515.35803	433.45337	-888.1311600000001	1149.06055	540.60565	-922.5204500000001	1150.51196	489.91164999999995	-752.0929600000001	923.81305	557.4613599999999	-719.2215600000001	931.75519	492.2678199999999	-691.9036300000001	861.6557	550.8569899999999	-754.20667	1017.68018	186.91659999999996	-957.30255	1044.11304	213.81360999999995	-783.44696	1008.81903	376.2835099999999	-968.51495	1042.96838	294.0352199999999	-657.2713	540.04382	122.32606999999994	-652.85968	505.85828	235.79447999999994	-540.61462	101.92500999999999	157.64057999999994	-614.57172	19.398299999999985	205.8984199999999	-541.10767	110.39438999999999	248.40793999999994	-375.8172	71.28853999999998	152.58808999999994	-330.95731000000006	87.62236999999999	239.98006999999998	-1020.21796	508.42584	409.72204999999997	-1028.59119	468.08676	311.35479999999995	-1328.98792	156.80636999999996	351.64388999999983	-1425.59399	136.91446999999997	282.7280299999998	-1300.37317	172.46818999999996	264.94680999999986	-1225.75183	35.118429999999975	388.78756999999985	-1165.50562	29.99496999999998	305.54720999999984	
